<svg xmlns="http://www.w3.org/2000/svg" width="96" height="96" viewBox="0 0 96 96" fill="none">
  <rect width="96" height="96" rx="12" fill="#9333EA"/>
  <circle cx="48" cy="48" r="28" fill="white" fill-opacity="0.95"/>
  <circle cx="48" cy="36" r="4" fill="#9333EA"/>
  <circle cx="40" cy="52" r="3" fill="#9333EA"/>
  <circle cx="48" cy="52" r="3" fill="#9333EA"/>
  <circle cx="56" cy="52" r="3" fill="#9333EA"/>
  <path d="M38 60C38 62.2091 42.6863 64 48 64C53.3137 64 58 62.2091 58 60" stroke="#9333EA" stroke-width="2.5" stroke-linecap="round"/>
  <path d="M48 24L51 32L59 30L52 36L60 42L51 39L48 48L45 39L36 42L44 36L37 30L45 32L48 24Z" fill="#9333EA" fill-opacity="0.8"/>
</svg>

