<svg xmlns="http://www.w3.org/2000/svg" width="96" height="96" viewBox="0 0 96 96" fill="none">
  <rect width="96" height="96" rx="12" fill="#0078D4"/>
  <path d="M24 28C24 25.7909 25.7909 24 28 24H42.3431C43.8434 24 45.2336 24.609 46.2338 25.6339L52.2338 31.6339C53.234 32.6588 54.6242 33.2679 56.1245 33.2679H68C70.2091 33.2679 72 35.0588 72 37.2679V68C72 70.2091 70.2091 72 68 72H28C25.7909 72 24 70.2091 24 68V28Z" fill="white" fill-opacity="0.95"/>
  <path d="M42.3431 24L42.3431 31.2679C42.3431 32.3724 43.2386 33.2679 44.3431 33.2679H51.611L42.3431 24Z" fill="white" fill-opacity="0.7"/>
  <path d="M30 48H66M30 40H66M30 56H50" stroke="#0078D4" stroke-width="2" stroke-linecap="round"/>
</svg>

