<svg xmlns="http://www.w3.org/2000/svg" width="96" height="96" viewBox="0 0 96 96" fill="none">
  <rect width="96" height="96" rx="12" fill="#6B7280"/>
  <circle cx="48" cy="48" r="8" fill="white" fill-opacity="0.95"/>
  <path d="M48 24V28M48 68V72M24 48H28M68 48H72M38.3432 38.3432L41.1716 41.1716M54.8284 54.8284L57.6568 57.6568M38.3432 57.6568L41.1716 54.8284M54.8284 41.1716L57.6568 38.3432" stroke="white" stroke-width="2.5" stroke-linecap="round" stroke-opacity="0.95"/>
  <path d="M35.5147 35.5147C33.5369 37.4925 33.5369 40.5075 35.5147 42.4853C37.4925 44.4631 40.5075 44.4631 42.4853 42.4853C44.4631 40.5075 47.4781 40.5075 49.4559 42.4853C51.4337 44.4631 54.4487 44.4631 56.4265 42.4853C58.4043 40.5075 61.4193 40.5075 63.3971 42.4853" stroke="white" stroke-width="2" stroke-linecap="round" stroke-opacity="0.8"/>
</svg>

